<?xml version="1.0" encoding="UTF-8"?>
<svg width="41px" height="41px" viewBox="0 0 41 41" version="1.1" xmlns="http://www.w3.org/2000/svg" xmlns:xlink="http://www.w3.org/1999/xlink">
    <!-- Generator: Sketch 60.1 (88133) - https://sketch.com -->
    <title>Group 3</title>
    <desc>Created with Sketch.</desc>
    <g id="Screens" stroke="none" stroke-width="1" fill="none" fill-rule="evenodd">
        <g id="LogIn_2" transform="translate(-72.000000, -104.000000)" fill-rule="nonzero">
            <g id="qr-code" transform="translate(0.000000, 30.000000)">
                <g id="Group" transform="translate(11.151515, 11.151515)">
                    <g id="Group-3" transform="translate(61.000000, 63.000000)">
                        <circle id="circle5" fill="#55ACEE" cx="20" cy="20" r="20"></circle>
                        <g id="Group-2" transform="translate(4.848485, 10.848485)" fill="#FFFFFF">
                            <path d="M1.9637568,9.11597361 C8.76410776,6.13670868 13.2987402,4.1725949 15.567654,3.22363225 C22.0458641,0.514151046 23.3919807,0.0434851578 24.2693606,0.0277777778 C24.4623322,0.0245252689 24.8938022,0.0726151133 25.1732903,0.300660338 C25.4092846,0.493217268 25.4742161,0.753334305 25.5052878,0.935899394 C25.5363597,1.11846448 25.5750514,1.53435243 25.5442944,1.8593152 C25.1932379,5.56838823 23.6742222,14.5693304 22.9014332,18.7235557 C22.5744371,20.4813642 21.9305718,21.0707484 21.3072357,21.1284274 C19.9525819,21.2537773 18.9239194,20.2282041 17.611871,19.3633617 C15.5587743,18.0100541 14.3989053,17.1676159 12.4060194,15.8470376 C10.102895,14.320881 11.5959147,13.4820788 12.9084586,12.1112412 C13.2519576,11.7524865 19.220593,6.29339037 19.3361162,5.7981648 C19.3505642,5.73622856 19.3639728,5.50535961 19.2275753,5.38345232 C19.0911779,5.26154504 18.889867,5.30323259 18.7445955,5.33638707 C18.5386775,5.38338251 15.2588289,7.56328446 8.90504974,11.8760928 C7.97407563,12.518923 7.1308282,12.8321315 6.37530744,12.8157182 C5.54240641,12.7976239 3.94023898,12.342167 2.74919217,11.9528537 C1.28832479,11.4753451 0.127256459,11.2228829 0.22835946,10.4119256 C0.281020135,9.98952886 0.8594859,9.55754486 1.9637568,9.11597361 Z" id="Path-3"></path>
                        </g>
                    </g>
                </g>
            </g>
        </g>
    </g>
</svg>